<svg version="1.1" id="Layer_1" xmlns="http://www.w3.org/2000/svg" xmlns:xlink="http://www.w3.org/1999/xlink" x="0px" y="0px"
	 width="100%" viewBox="0 0 512 512" enable-background="new 0 0 512 512" xml:space="preserve">
<path fill="#000000" opacity="1.000000" stroke="none" 
	d="
M216.000000,502.000000 
	C180.336777,502.000000 145.173416,501.945740 110.010384,502.028198 
	C96.970520,502.058807 86.257156,496.907745 76.772270,488.327179 
	C63.863674,476.649445 58.242416,461.473145 54.934193,444.951294 
	C52.469662,432.642914 49.394028,420.457520 46.633511,408.207672 
	C42.067139,387.944336 37.584846,367.661926 32.973545,347.408875 
	C29.222179,330.932617 25.287573,314.498169 21.520088,298.025543 
	C18.288221,283.894745 13.923862,269.879089 12.291245,255.558197 
	C9.439653,230.544769 15.409052,207.732285 35.186287,190.443985 
	C44.298565,182.478485 55.352146,178.324509 67.534637,178.057251 
	C79.505592,177.794632 91.486832,178.000000 103.243416,178.000000 
	C105.191139,165.577179 106.539070,153.317566 109.112473,141.320816 
	C114.647652,115.516739 125.563599,91.846886 141.700912,71.107674 
	C157.312927,51.043560 176.364456,34.535706 199.939651,24.039888 
	C212.479767,18.456951 225.514252,14.617454 239.234482,12.935756 
	C271.368530,8.997068 301.270294,15.213368 328.904327,32.027512 
	C339.553558,38.507114 348.918304,46.568832 357.965607,55.210033 
	C371.146973,67.799736 381.452209,82.464333 389.507599,98.448334 
	C398.252136,115.799736 404.955353,134.114822 407.067169,153.759491 
	C407.918060,161.674652 409.302185,169.532486 410.528137,178.000000 
	C421.413849,178.000000 432.695801,177.913727 443.975983,178.018555 
	C465.350861,178.217163 480.839661,188.410538 492.057861,206.166519 
	C501.608612,221.283234 503.274597,238.013962 501.785675,255.080719 
	C500.965851,264.478119 498.054382,273.703033 495.959381,282.977142 
	C491.348511,303.388672 486.697205,323.791260 481.988464,344.180420 
	C476.411499,368.329010 470.780792,392.465271 465.127197,416.596039 
	C461.459808,432.249084 458.876648,448.280731 453.710114,463.427277 
	C446.807678,483.662903 432.199219,496.873138 410.968262,501.935730 
	C409.547577,502.274475 407.979034,501.999115 406.479248,501.999115 
	C343.152832,502.000153 279.826416,502.000000 216.000000,502.000000 
M292.500000,461.000000 
	C326.995239,461.000000 361.492828,460.773804 395.984283,461.134521 
	C406.664703,461.246185 412.459351,456.371674 414.866516,447.314056 
	C419.036072,431.625000 422.340973,415.706573 426.033600,399.890228 
	C431.338806,377.166809 436.747925,354.467316 441.960785,331.722778 
	C446.745056,310.848083 451.405823,289.944153 455.967743,269.019714 
	C458.315094,258.252777 461.577362,247.670975 461.116302,236.372833 
	C460.788513,228.339417 454.991180,219.834915 444.768494,219.859573 
	C347.281250,220.094772 249.793228,220.000000 152.305435,220.000000 
	C124.642227,220.000000 96.979019,219.990845 69.315826,220.007736 
	C63.780533,220.011108 59.380459,221.844147 56.382496,226.982742 
	C51.255554,235.770477 52.679775,244.971024 54.577431,253.992493 
	C58.053783,270.519135 62.239193,286.895233 65.964737,303.371216 
	C70.511284,323.478088 74.874969,343.626221 79.344086,363.750671 
	C82.206017,376.637939 85.004066,389.540894 88.032822,402.389191 
	C91.572701,417.405823 95.019775,432.456665 99.113121,447.325836 
	C101.599007,456.355957 107.507339,461.166168 117.522301,461.122772 
	C175.513947,460.871460 233.507248,461.000000 292.500000,461.000000 
M262.723724,53.999847 
	C254.327850,54.394989 245.670624,53.610481 237.584167,55.402164 
	C211.283234,61.229549 190.500946,76.228699 174.380493,97.395493 
	C162.808746,112.589622 154.724533,129.799545 150.342590,148.455872 
	C148.101501,157.997375 147.041748,167.816345 145.401428,177.793579 
	C220.166519,177.793579 293.924957,177.793579 367.981842,177.793579 
	C367.639526,173.202011 367.671631,168.771378 366.925873,164.475800 
	C363.777466,146.340408 358.649597,128.908936 349.418274,112.741112 
	C340.202301,96.600189 328.606354,82.671104 313.403107,72.015869 
	C298.507812,61.576458 282.213470,54.534298 262.723724,53.999847 
z"/>

<path fill="#000000" opacity="1.000000" stroke="none" 
	d="
M135.996674,414.705200 
	C135.661957,412.383270 135.044464,410.488220 135.042053,408.592407 
	C134.987396,365.480347 134.935913,322.367950 135.056564,279.256134 
	C135.079422,271.086853 139.034378,264.965088 146.739029,261.810547 
	C154.584503,258.598358 162.064453,258.815735 169.061905,264.452820 
	C174.954971,269.200226 176.881165,275.658112 176.911438,282.566132 
	C177.090851,323.513550 177.224747,364.464081 176.879486,405.409393 
	C176.756744,419.965363 169.451553,428.995697 154.471695,428.844086 
	C145.541885,428.753693 139.431152,423.384735 135.996674,414.705200 
z"/>
<path fill="#000000" opacity="1.000000" stroke="none" 
	d="
M333.000000,389.000000 
	C333.000000,352.027466 332.998413,315.554932 333.001038,279.082397 
	C333.001770,268.807556 341.609131,260.483673 351.621918,259.890594 
	C366.072571,259.034760 374.013428,269.957062 374.009125,279.051208 
	C373.988708,322.351929 373.774139,365.654572 374.137024,408.952240 
	C374.246552,422.019836 359.194305,432.326355 347.291168,428.069458 
	C337.562378,424.590179 332.464691,416.619507 332.935120,407.982697 
	C333.269745,401.838837 333.000000,395.662079 333.000000,389.000000 
z"/>
<path fill="#000000" opacity="1.000000" stroke="none" 
	d="
M275.000000,341.000000 
	C275.000000,363.639252 274.431030,385.798065 275.190033,407.911255 
	C275.741791,423.985107 257.214996,434.456024 244.022842,426.026306 
	C237.587662,421.914276 233.934448,416.496460 233.952927,408.554810 
	C234.052414,365.774689 234.048691,322.994110 233.966415,280.213898 
	C233.945343,269.264160 241.180405,261.467560 250.715164,260.126404 
	C263.655060,258.306366 270.515167,264.338135 274.813629,274.618134 
	C275.292480,275.763367 274.993988,277.248840 274.994507,278.576538 
	C275.002319,299.217682 275.000000,319.858856 275.000000,341.000000 
z"/>
</svg>